<mxfile host="Electron" modified="2024-01-10T10:23:03.391Z" agent="Mozilla/5.0 (Windows NT 10.0; Win64; x64) AppleWebKit/537.36 (KHTML, like Gecko) draw.io/22.1.11 Chrome/114.0.5735.289 Electron/25.9.8 Safari/537.36" etag="ZGPd8ozvWDMacqH1TYd2" version="22.1.11" type="device">
  <diagram name="第 1 页" id="UQMhp3os8kKmv7PTj7zV">
    <mxGraphModel dx="1434" dy="844" grid="1" gridSize="10" guides="1" tooltips="1" connect="1" arrows="1" fold="1" page="1" pageScale="1" pageWidth="827" pageHeight="1169" math="0" shadow="0">
      <root>
        <mxCell id="0" />
        <mxCell id="1" parent="0" />
        <mxCell id="Oty-EanpxHOjuyEYTOys-1" value="IAssetFactory" style="swimlane;fontStyle=1;align=center;verticalAlign=top;childLayout=stackLayout;horizontal=1;startSize=26;horizontalStack=0;resizeParent=1;resizeParentMax=0;resizeLast=0;collapsible=1;marginBottom=0;whiteSpace=wrap;html=1;" vertex="1" parent="1">
          <mxGeometry x="160" y="200" width="160" height="190" as="geometry" />
        </mxCell>
        <mxCell id="Oty-EanpxHOjuyEYTOys-3" value="" style="line;strokeWidth=1;fillColor=none;align=left;verticalAlign=middle;spacingTop=-1;spacingLeft=3;spacingRight=3;rotatable=0;labelPosition=right;points=[];portConstraint=eastwest;strokeColor=inherit;" vertex="1" parent="Oty-EanpxHOjuyEYTOys-1">
          <mxGeometry y="26" width="160" height="8" as="geometry" />
        </mxCell>
        <mxCell id="Oty-EanpxHOjuyEYTOys-4" value="+LoadSoldier()" style="text;strokeColor=none;fillColor=none;align=left;verticalAlign=top;spacingLeft=4;spacingRight=4;overflow=hidden;rotatable=0;points=[[0,0.5],[1,0.5]];portConstraint=eastwest;whiteSpace=wrap;html=1;" vertex="1" parent="Oty-EanpxHOjuyEYTOys-1">
          <mxGeometry y="34" width="160" height="26" as="geometry" />
        </mxCell>
        <mxCell id="Oty-EanpxHOjuyEYTOys-5" value="+LoadEnmey()" style="text;strokeColor=none;fillColor=none;align=left;verticalAlign=top;spacingLeft=4;spacingRight=4;overflow=hidden;rotatable=0;points=[[0,0.5],[1,0.5]];portConstraint=eastwest;whiteSpace=wrap;html=1;" vertex="1" parent="Oty-EanpxHOjuyEYTOys-1">
          <mxGeometry y="60" width="160" height="26" as="geometry" />
        </mxCell>
        <mxCell id="Oty-EanpxHOjuyEYTOys-6" value="+LoadWeapon()" style="text;strokeColor=none;fillColor=none;align=left;verticalAlign=top;spacingLeft=4;spacingRight=4;overflow=hidden;rotatable=0;points=[[0,0.5],[1,0.5]];portConstraint=eastwest;whiteSpace=wrap;html=1;" vertex="1" parent="Oty-EanpxHOjuyEYTOys-1">
          <mxGeometry y="86" width="160" height="26" as="geometry" />
        </mxCell>
        <mxCell id="Oty-EanpxHOjuyEYTOys-7" value="+LoadEffect()" style="text;strokeColor=none;fillColor=none;align=left;verticalAlign=top;spacingLeft=4;spacingRight=4;overflow=hidden;rotatable=0;points=[[0,0.5],[1,0.5]];portConstraint=eastwest;whiteSpace=wrap;html=1;" vertex="1" parent="Oty-EanpxHOjuyEYTOys-1">
          <mxGeometry y="112" width="160" height="26" as="geometry" />
        </mxCell>
        <mxCell id="Oty-EanpxHOjuyEYTOys-8" value="+LoadAudioClip()" style="text;strokeColor=none;fillColor=none;align=left;verticalAlign=top;spacingLeft=4;spacingRight=4;overflow=hidden;rotatable=0;points=[[0,0.5],[1,0.5]];portConstraint=eastwest;whiteSpace=wrap;html=1;" vertex="1" parent="Oty-EanpxHOjuyEYTOys-1">
          <mxGeometry y="138" width="160" height="26" as="geometry" />
        </mxCell>
        <mxCell id="Oty-EanpxHOjuyEYTOys-9" value="+LoadSprite()" style="text;strokeColor=none;fillColor=none;align=left;verticalAlign=top;spacingLeft=4;spacingRight=4;overflow=hidden;rotatable=0;points=[[0,0.5],[1,0.5]];portConstraint=eastwest;whiteSpace=wrap;html=1;" vertex="1" parent="Oty-EanpxHOjuyEYTOys-1">
          <mxGeometry y="164" width="160" height="26" as="geometry" />
        </mxCell>
        <mxCell id="Oty-EanpxHOjuyEYTOys-29" style="rounded=0;orthogonalLoop=1;jettySize=auto;html=1;endArrow=block;endFill=0;" edge="1" parent="1" source="Oty-EanpxHOjuyEYTOys-11" target="Oty-EanpxHOjuyEYTOys-1">
          <mxGeometry relative="1" as="geometry" />
        </mxCell>
        <mxCell id="Oty-EanpxHOjuyEYTOys-11" value="ResourceAssetFacotry" style="swimlane;fontStyle=1;align=center;verticalAlign=top;childLayout=stackLayout;horizontal=1;startSize=26;horizontalStack=0;resizeParent=1;resizeParentMax=0;resizeLast=0;collapsible=1;marginBottom=0;whiteSpace=wrap;html=1;" vertex="1" parent="1">
          <mxGeometry x="145" y="480" width="190" height="190" as="geometry" />
        </mxCell>
        <mxCell id="Oty-EanpxHOjuyEYTOys-12" value="" style="line;strokeWidth=1;fillColor=none;align=left;verticalAlign=middle;spacingTop=-1;spacingLeft=3;spacingRight=3;rotatable=0;labelPosition=right;points=[];portConstraint=eastwest;strokeColor=inherit;" vertex="1" parent="Oty-EanpxHOjuyEYTOys-11">
          <mxGeometry y="26" width="190" height="8" as="geometry" />
        </mxCell>
        <mxCell id="Oty-EanpxHOjuyEYTOys-13" value="+LoadSoldier()" style="text;strokeColor=none;fillColor=none;align=left;verticalAlign=top;spacingLeft=4;spacingRight=4;overflow=hidden;rotatable=0;points=[[0,0.5],[1,0.5]];portConstraint=eastwest;whiteSpace=wrap;html=1;" vertex="1" parent="Oty-EanpxHOjuyEYTOys-11">
          <mxGeometry y="34" width="190" height="26" as="geometry" />
        </mxCell>
        <mxCell id="Oty-EanpxHOjuyEYTOys-14" value="+LoadEnmey()" style="text;strokeColor=none;fillColor=none;align=left;verticalAlign=top;spacingLeft=4;spacingRight=4;overflow=hidden;rotatable=0;points=[[0,0.5],[1,0.5]];portConstraint=eastwest;whiteSpace=wrap;html=1;" vertex="1" parent="Oty-EanpxHOjuyEYTOys-11">
          <mxGeometry y="60" width="190" height="26" as="geometry" />
        </mxCell>
        <mxCell id="Oty-EanpxHOjuyEYTOys-15" value="+LoadWeapon()" style="text;strokeColor=none;fillColor=none;align=left;verticalAlign=top;spacingLeft=4;spacingRight=4;overflow=hidden;rotatable=0;points=[[0,0.5],[1,0.5]];portConstraint=eastwest;whiteSpace=wrap;html=1;" vertex="1" parent="Oty-EanpxHOjuyEYTOys-11">
          <mxGeometry y="86" width="190" height="26" as="geometry" />
        </mxCell>
        <mxCell id="Oty-EanpxHOjuyEYTOys-16" value="+LoadEffect()" style="text;strokeColor=none;fillColor=none;align=left;verticalAlign=top;spacingLeft=4;spacingRight=4;overflow=hidden;rotatable=0;points=[[0,0.5],[1,0.5]];portConstraint=eastwest;whiteSpace=wrap;html=1;" vertex="1" parent="Oty-EanpxHOjuyEYTOys-11">
          <mxGeometry y="112" width="190" height="26" as="geometry" />
        </mxCell>
        <mxCell id="Oty-EanpxHOjuyEYTOys-17" value="+LoadAudioClip()" style="text;strokeColor=none;fillColor=none;align=left;verticalAlign=top;spacingLeft=4;spacingRight=4;overflow=hidden;rotatable=0;points=[[0,0.5],[1,0.5]];portConstraint=eastwest;whiteSpace=wrap;html=1;" vertex="1" parent="Oty-EanpxHOjuyEYTOys-11">
          <mxGeometry y="138" width="190" height="26" as="geometry" />
        </mxCell>
        <mxCell id="Oty-EanpxHOjuyEYTOys-18" value="+LoadSprite()" style="text;strokeColor=none;fillColor=none;align=left;verticalAlign=top;spacingLeft=4;spacingRight=4;overflow=hidden;rotatable=0;points=[[0,0.5],[1,0.5]];portConstraint=eastwest;whiteSpace=wrap;html=1;" vertex="1" parent="Oty-EanpxHOjuyEYTOys-11">
          <mxGeometry y="164" width="190" height="26" as="geometry" />
        </mxCell>
        <mxCell id="Oty-EanpxHOjuyEYTOys-31" style="edgeStyle=none;rounded=0;orthogonalLoop=1;jettySize=auto;html=1;endArrow=block;endFill=0;" edge="1" parent="1" source="Oty-EanpxHOjuyEYTOys-19" target="Oty-EanpxHOjuyEYTOys-1">
          <mxGeometry relative="1" as="geometry" />
        </mxCell>
        <mxCell id="Oty-EanpxHOjuyEYTOys-19" value="ResourceAssetProxyFacotry" style="swimlane;fontStyle=1;align=center;verticalAlign=top;childLayout=stackLayout;horizontal=1;startSize=26;horizontalStack=0;resizeParent=1;resizeParentMax=0;resizeLast=0;collapsible=1;marginBottom=0;whiteSpace=wrap;html=1;" vertex="1" parent="1">
          <mxGeometry x="440" y="454" width="240" height="250" as="geometry" />
        </mxCell>
        <mxCell id="Oty-EanpxHOjuyEYTOys-27" value="realFactory" style="text;html=1;strokeColor=none;fillColor=none;align=left;verticalAlign=middle;whiteSpace=wrap;rounded=0;spacingLeft=4;spacingRight=4;" vertex="1" parent="Oty-EanpxHOjuyEYTOys-19">
          <mxGeometry y="26" width="240" height="30" as="geometry" />
        </mxCell>
        <mxCell id="Oty-EanpxHOjuyEYTOys-28" value="soldiers" style="text;html=1;strokeColor=none;fillColor=none;align=left;verticalAlign=middle;whiteSpace=wrap;rounded=0;spacingLeft=4;spacingRight=4;" vertex="1" parent="Oty-EanpxHOjuyEYTOys-19">
          <mxGeometry y="56" width="240" height="30" as="geometry" />
        </mxCell>
        <mxCell id="Oty-EanpxHOjuyEYTOys-20" value="" style="line;strokeWidth=1;fillColor=none;align=left;verticalAlign=middle;spacingTop=-1;spacingLeft=3;spacingRight=3;rotatable=0;labelPosition=right;points=[];portConstraint=eastwest;strokeColor=inherit;" vertex="1" parent="Oty-EanpxHOjuyEYTOys-19">
          <mxGeometry y="86" width="240" height="8" as="geometry" />
        </mxCell>
        <mxCell id="Oty-EanpxHOjuyEYTOys-21" value="+LoadSoldier()" style="text;strokeColor=none;fillColor=none;align=left;verticalAlign=top;spacingLeft=4;spacingRight=4;overflow=hidden;rotatable=0;points=[[0,0.5],[1,0.5]];portConstraint=eastwest;whiteSpace=wrap;html=1;" vertex="1" parent="Oty-EanpxHOjuyEYTOys-19">
          <mxGeometry y="94" width="240" height="26" as="geometry" />
        </mxCell>
        <mxCell id="Oty-EanpxHOjuyEYTOys-22" value="+LoadEnmey()" style="text;strokeColor=none;fillColor=none;align=left;verticalAlign=top;spacingLeft=4;spacingRight=4;overflow=hidden;rotatable=0;points=[[0,0.5],[1,0.5]];portConstraint=eastwest;whiteSpace=wrap;html=1;" vertex="1" parent="Oty-EanpxHOjuyEYTOys-19">
          <mxGeometry y="120" width="240" height="26" as="geometry" />
        </mxCell>
        <mxCell id="Oty-EanpxHOjuyEYTOys-23" value="+LoadWeapon()" style="text;strokeColor=none;fillColor=none;align=left;verticalAlign=top;spacingLeft=4;spacingRight=4;overflow=hidden;rotatable=0;points=[[0,0.5],[1,0.5]];portConstraint=eastwest;whiteSpace=wrap;html=1;" vertex="1" parent="Oty-EanpxHOjuyEYTOys-19">
          <mxGeometry y="146" width="240" height="26" as="geometry" />
        </mxCell>
        <mxCell id="Oty-EanpxHOjuyEYTOys-24" value="+LoadEffect()" style="text;strokeColor=none;fillColor=none;align=left;verticalAlign=top;spacingLeft=4;spacingRight=4;overflow=hidden;rotatable=0;points=[[0,0.5],[1,0.5]];portConstraint=eastwest;whiteSpace=wrap;html=1;" vertex="1" parent="Oty-EanpxHOjuyEYTOys-19">
          <mxGeometry y="172" width="240" height="26" as="geometry" />
        </mxCell>
        <mxCell id="Oty-EanpxHOjuyEYTOys-25" value="+LoadAudioClip()" style="text;strokeColor=none;fillColor=none;align=left;verticalAlign=top;spacingLeft=4;spacingRight=4;overflow=hidden;rotatable=0;points=[[0,0.5],[1,0.5]];portConstraint=eastwest;whiteSpace=wrap;html=1;" vertex="1" parent="Oty-EanpxHOjuyEYTOys-19">
          <mxGeometry y="198" width="240" height="26" as="geometry" />
        </mxCell>
        <mxCell id="Oty-EanpxHOjuyEYTOys-26" value="+LoadSprite()" style="text;strokeColor=none;fillColor=none;align=left;verticalAlign=top;spacingLeft=4;spacingRight=4;overflow=hidden;rotatable=0;points=[[0,0.5],[1,0.5]];portConstraint=eastwest;whiteSpace=wrap;html=1;" vertex="1" parent="Oty-EanpxHOjuyEYTOys-19">
          <mxGeometry y="224" width="240" height="26" as="geometry" />
        </mxCell>
        <mxCell id="Oty-EanpxHOjuyEYTOys-32" style="edgeStyle=none;rounded=0;orthogonalLoop=1;jettySize=auto;html=1;endArrow=diamondThin;endFill=1;" edge="1" parent="1" source="Oty-EanpxHOjuyEYTOys-15" target="Oty-EanpxHOjuyEYTOys-19">
          <mxGeometry relative="1" as="geometry" />
        </mxCell>
      </root>
    </mxGraphModel>
  </diagram>
</mxfile>
